# 3ds Max Wavefront OBJ Exporter v0.97b - (c)2007 guruware
# File Created: 01.09.2020 13:55:49

mtllib Pier Pillar 1.mtl

#
# object Box002
#

v  -31.6888 43.5856 14.6219
v  -30.9506 43.5856 14.6219
v  -30.9506 43.5856 13.8836
v  -31.6888 43.5856 13.8836
v  -28.8969 43.5856 14.6219
v  -28.8969 43.5856 13.8836
v  -28.1586 43.5856 14.6219
v  -28.1586 43.5856 13.8836
v  -30.9506 43.5856 11.8299
v  -31.6888 43.5856 11.8299
v  -28.8969 43.5856 11.8299
v  -28.1586 43.5856 11.8299
v  -30.9506 43.5856 11.0917
v  -31.6888 43.5856 11.0917
v  -28.8969 43.5856 11.0917
v  -28.1586 43.5856 11.0917
v  -31.1083 -2.7310 15.3568
v  -30.7571 -2.7310 15.3568
v  -30.8541 20.4273 15.6478
v  -31.3993 20.4273 15.6478
v  -29.0904 -2.7310 15.3568
v  -28.9934 20.4273 15.6478
v  -28.7391 -2.7310 15.3568
v  -28.4482 20.4273 15.6478
v  -30.9417 41.4625 15.9107
v  -31.6620 41.4624 15.9107
v  -28.9058 41.4625 15.9107
v  -28.1854 41.4624 15.9107
v  -27.4237 -2.7310 14.0414
v  -27.4237 -2.7310 13.6901
v  -27.1328 20.4273 13.7871
v  -27.1328 20.4273 14.3324
v  -27.4237 -2.7310 12.0234
v  -27.1328 20.4273 11.9265
v  -27.4237 -2.7310 11.6722
v  -27.1328 20.4273 11.3812
v  -26.8698 41.4625 13.8748
v  -26.8698 41.4624 14.5951
v  -26.8698 41.4625 11.8388
v  -26.8698 41.4624 11.1185
v  -28.7391 -2.7310 10.3568
v  -29.0904 -2.7310 10.3568
v  -28.9934 20.4273 10.0658
v  -28.4482 20.4273 10.0658
v  -30.7571 -2.7310 10.3568
v  -30.8541 20.4273 10.0658
v  -31.1083 -2.7310 10.3568
v  -31.3993 20.4273 10.0658
v  -28.9058 41.4625 9.8028
v  -28.1854 41.4624 9.8028
v  -30.9417 41.4625 9.8028
v  -31.6620 41.4624 9.8028
v  -32.4237 -2.7310 11.6722
v  -32.4237 -2.7310 12.0234
v  -32.7147 20.4273 11.9265
v  -32.7147 20.4273 11.3812
v  -32.4237 -2.7310 13.6901
v  -32.7147 20.4273 13.7871
v  -32.4237 -2.7310 14.0414
v  -32.7147 20.4273 14.3324
v  -32.9777 41.4625 11.8388
v  -32.9777 41.4624 11.1185
v  -32.9777 41.4625 13.8748
v  -32.9777 41.4624 14.5951
# 64 vertices

vn -0.3472 0.8712 0.3472
vn 0.0000 0.9219 0.3873
vn 0.0000 1.0000 -0.0000
vn -0.3873 0.9219 -0.0000
vn -0.0000 0.9219 0.3873
vn 0.3472 0.8712 0.3472
vn 0.3873 0.9219 -0.0000
vn -0.3873 0.9219 0.0000
vn 0.3873 0.9219 0.0000
vn 0.0000 0.9219 -0.3873
vn -0.3472 0.8712 -0.3472
vn -0.0000 0.9219 -0.3873
vn 0.3472 0.8712 -0.3472
vn -0.3801 -0.0265 0.9246
vn 0.0000 -0.0203 0.9998
vn 0.0000 -0.0202 0.9998
vn -0.3825 -0.0264 0.9236
vn 0.3801 -0.0265 0.9246
vn 0.3825 -0.0264 0.9236
vn -0.0000 0.3687 0.9296
vn -0.3442 0.3239 0.8812
vn 0.0000 0.3687 0.9296
vn 0.3442 0.3239 0.8812
vn 0.9246 -0.0265 0.3801
vn 0.9998 -0.0203 -0.0000
vn 0.9998 -0.0202 -0.0000
vn 0.9236 -0.0264 0.3825
vn 0.9246 -0.0265 -0.3801
vn 0.9236 -0.0264 -0.3825
vn 0.9296 0.3687 0.0000
vn 0.8812 0.3239 0.3442
vn 0.9296 0.3687 -0.0000
vn 0.8812 0.3239 -0.3442
vn 0.3801 -0.0265 -0.9246
vn 0.0000 -0.0203 -0.9998
vn 0.0000 -0.0202 -0.9998
vn 0.3825 -0.0264 -0.9236
vn -0.3801 -0.0265 -0.9246
vn -0.3825 -0.0264 -0.9236
vn 0.0000 0.3687 -0.9296
vn 0.3442 0.3239 -0.8812
vn -0.0000 0.3687 -0.9296
vn -0.3442 0.3239 -0.8812
vn -0.9246 -0.0265 -0.3801
vn -0.9998 -0.0203 -0.0000
vn -0.9998 -0.0202 -0.0000
vn -0.9236 -0.0264 -0.3825
vn -0.9246 -0.0265 0.3801
vn -0.9236 -0.0264 0.3825
vn -0.9296 0.3687 -0.0000
vn -0.8812 0.3239 -0.3442
vn -0.9296 0.3687 0.0000
vn -0.8812 0.3239 0.3442
# 53 vertex normals

vt 0.1868 0.3450 0.0000
vt 0.2433 0.3450 0.0000
vt 0.2433 0.4014 0.0000
vt 0.1868 0.4014 0.0000
vt 0.4002 0.3450 0.0000
vt 0.4002 0.4014 0.0000
vt 0.4566 0.3450 0.0000
vt 0.4566 0.4014 0.0000
vt 0.2433 0.5584 0.0000
vt 0.1868 0.5584 0.0000
vt 0.4002 0.5584 0.0000
vt 0.4566 0.5584 0.0000
vt 0.2433 0.6148 0.0000
vt 0.1868 0.6148 0.0000
vt 0.4002 0.6148 0.0000
vt 0.4566 0.6148 0.0000
vt 0.8532 0.0424 0.0000
vt 0.8626 0.0422 0.0000
vt 0.8747 0.5331 0.0000
vt 0.8602 0.5335 0.0000
vt 0.9179 0.0407 0.0000
vt 0.9356 0.5314 0.0000
vt 0.9293 0.0404 0.0000
vt 0.9533 0.5309 0.0000
vt 0.8814 0.9711 0.0000
vt 0.8610 0.9715 0.0000
vt 0.9467 0.9699 0.0000
vt 0.9699 0.9695 0.0000
vt 0.7193 0.0406 0.0000
vt 0.7292 0.0407 0.0000
vt 0.7259 0.5387 0.0000
vt 0.7092 0.5386 0.0000
vt 0.7837 0.0409 0.0000
vt 0.7870 0.5388 0.0000
vt 0.7923 0.0410 0.0000
vt 0.8014 0.5390 0.0000
vt 0.7214 0.9694 0.0000
vt 0.6990 0.9694 0.0000
vt 0.7864 0.9695 0.0000
vt 0.8055 0.9695 0.0000
vt 0.8538 0.0402 0.0000
vt 0.8634 0.0400 0.0000
vt 0.8756 0.5378 0.0000
vt 0.8609 0.5382 0.0000
vt 0.9194 0.0384 0.0000
vt 0.9374 0.5361 0.0000
vt 0.9310 0.0381 0.0000
vt 0.9553 0.5356 0.0000
vt 0.8837 0.9692 0.0000
vt 0.8622 0.9696 0.0000
vt 0.9493 0.9679 0.0000
vt 0.9726 0.9675 0.0000
vt 0.7206 0.0428 0.0000
vt 0.7304 0.0429 0.0000
vt 0.7271 0.5340 0.0000
vt 0.7107 0.5339 0.0000
vt 0.7841 0.0431 0.0000
vt 0.7874 0.5341 0.0000
vt 0.7926 0.0432 0.0000
vt 0.8015 0.5343 0.0000
vt 0.7234 0.9713 0.0000
vt 0.7017 0.9713 0.0000
vt 0.7877 0.9713 0.0000
vt 0.8054 0.9714 0.0000
vt 0.0886 0.2588 0.0000
vt 0.1887 0.1744 0.0000
vt 0.4532 0.1744 0.0000
vt 0.5533 0.2588 0.0000
vt 0.1868 0.7881 0.0000
vt 0.0859 0.7030 0.0000
vt 0.5544 0.7030 0.0000
vt 0.4535 0.7881 0.0000
vt 0.2435 0.1744 0.0000
vt 0.0140 0.4027 0.0000
vt 0.0140 0.3472 0.0000
vt 0.3984 0.1744 0.0000
vt 0.6269 0.3490 0.0000
vt 0.6269 0.4035 0.0000
vt 0.0140 0.5594 0.0000
vt 0.6269 0.5573 0.0000
vt 0.2420 0.7881 0.0000
vt 0.0140 0.6149 0.0000
vt 0.3982 0.7881 0.0000
vt 0.6269 0.6118 0.0000
vt 0.6556 0.0393 0.0000
vt 0.6455 0.5372 0.0000
vt 0.6382 0.9681 0.0000
vt 0.6578 0.0415 0.0000
vt 0.6478 0.5326 0.0000
vt 0.6406 0.9700 0.0000
# 90 texture coords

o Box002
g Box002
usemtl wire_068022000
s 1
f 1/1/1 2/2/2 3/3/3 4/4/4 
f 2/2/2 5/5/5 6/6/3 3/3/3 
f 5/5/5 7/7/6 8/8/7 6/6/3 
f 4/4/4 3/3/3 9/9/3 10/10/8 
f 3/3/3 6/6/3 11/11/3 9/9/3 
f 6/6/3 8/8/7 12/12/9 11/11/3 
f 10/10/8 9/9/3 13/13/10 14/14/11 
f 9/9/3 11/11/3 15/15/12 13/13/10 
f 11/11/3 12/12/9 16/16/13 15/15/12 
f 17/17/14 18/18/15 19/19/16 20/20/17 
f 18/18/15 21/21/15 22/22/16 19/19/16 
f 21/21/15 23/23/18 24/24/19 22/22/16 
f 20/20/17 19/19/16 25/25/20 26/26/21 
f 19/19/16 22/22/16 27/27/22 25/25/20 
f 22/22/16 24/24/19 28/28/23 27/27/22 
f 29/29/24 30/30/25 31/31/26 32/32/27 
f 30/30/25 33/33/25 34/34/26 31/31/26 
f 33/33/25 35/35/28 36/36/29 34/34/26 
f 32/32/27 31/31/26 37/37/30 38/38/31 
f 31/31/26 34/34/26 39/39/32 37/37/30 
f 34/34/26 36/36/29 40/40/33 39/39/32 
f 41/41/34 42/42/35 43/43/36 44/44/37 
f 42/42/35 45/45/35 46/46/36 43/43/36 
f 45/45/35 47/47/38 48/48/39 46/46/36 
f 44/44/37 43/43/36 49/49/40 50/50/41 
f 43/43/36 46/46/36 51/51/42 49/49/40 
f 46/46/36 48/48/39 52/52/43 51/51/42 
f 53/53/44 54/54/45 55/55/46 56/56/47 
f 54/54/45 57/57/45 58/58/46 55/55/46 
f 57/57/45 59/59/48 60/60/49 58/58/46 
f 56/56/47 55/55/46 61/61/50 62/62/51 
f 55/55/46 58/58/46 63/63/52 61/61/50 
f 58/58/46 60/60/49 64/64/53 63/63/52 
s 2
f 1/1/1 64/65/53 26/66/21 
f 28/67/23 38/68/31 7/7/6 
f 14/14/11 52/69/43 62/70/51 
f 40/71/33 50/72/41 16/16/13 
s 4
f 1/1/1 26/66/21 25/73/20 2/2/2 
s 8
f 4/4/4 63/74/52 64/75/53 1/1/1 
s 4
f 2/2/2 25/73/20 27/76/22 5/5/5 
f 5/5/5 27/76/22 28/67/23 7/7/6 
s 8
f 7/7/6 38/77/31 37/78/30 8/8/7 
f 10/10/8 61/79/50 63/74/52 4/4/4 
f 8/8/7 37/78/30 39/80/32 12/12/9 
s 4
f 13/13/10 51/81/42 52/69/43 14/14/11 
s 8
f 14/14/11 62/82/51 61/79/50 10/10/8 
s 4
f 15/15/12 49/83/40 51/81/42 13/13/10 
s 8
f 12/12/9 39/80/32 40/84/33 16/16/13 
s 4
f 16/16/13 50/72/41 49/83/40 15/15/12 
s 16
f 20/20/17 60/60/49 59/59/48 17/17/14 
f 23/85/18 29/29/24 32/32/27 24/86/19 
f 26/26/21 64/64/53 60/60/49 20/20/17 
f 24/86/19 32/32/27 38/38/31 28/87/23 
f 35/35/28 41/41/34 44/44/37 36/36/29 
f 36/36/29 44/44/37 50/50/41 40/40/33 
f 47/88/38 53/53/44 56/56/47 48/89/39 
f 48/89/39 56/56/47 62/62/51 52/90/43 
# 53 polygons - 4 triangles

